<?xml version="1.0" encoding="UTF-8" standalone="no"?>
<!-- Created with Inkscape (http://www.inkscape.org/) -->

<svg
   width="53.120224mm"
   height="36.565903mm"
   viewBox="0 0 200.76935 138.20184"
   version="1.1"
   id="svg1"
   xmlns="http://www.w3.org/2000/svg"
   xmlns:svg="http://www.w3.org/2000/svg">
  <defs
     id="defs1" />
  <g
     id="layer1"
     transform="translate(-247.23425,-125.83676)">
    <path
   style="font-size:80.5739px;font-family:Opencare;-inkscape-font-specification:Opencare;text-align:center;letter-spacing:0px;text-anchor:middle;stroke-width:0;fill:#4c3100;"
       d="m 286.39113,125.31131 c 0.48345,-1.20861 1.77263,-2.33664 2.73951,-3.30353 15.38962,-14.01986 67.76265,-12.6501 51.00328,10.07174 -9.99116,13.53641 -32.63243,26.99225 -48.90835,29.73177 l -0.0806,-0.3223 c 2.1755,-10.31346 7.89624,-24.41389 15.06732,-39.23949 0.40287,-0.88631 1.20861,-2.25607 0,-2.98123 -0.64459,-0.56402 -1.28918,-0.3223 -1.77263,0.32229 -1.12803,0.96689 -4.83443,7.57395 -5.55959,9.18543 -5.23731,11.1192 -8.70199,22.56069 -12.24724,34.24391 -2.09492,-0.16115 -1.93377,-0.24173 -3.78697,-1.28919 0.56402,1.77263 1.69205,2.73952 3.3841,3.30353 -0.0806,2.01435 -1.2086,8.46026 2.82009,7.49338 -0.24172,-1.28919 0.0806,-7.17108 1.69205,-7.49338 3.06181,-0.48344 5.72075,-1.20861 8.62141,-2.25607 11.19977,-4.02869 21.43266,-10.07173 30.77923,-17.24281 7.57394,-5.80132 22.15782,-19.33774 11.92494,-29.0066 -8.78256,-8.46026 -27.63685,-7.25166 -38.51433,-4.43157 -5.47902,1.53091 -17.48453,6.28477 -19.17659,12.48896 -0.32229,1.36975 0.16115,1.8532 1.28919,2.25606 1.12803,0.3223 2.65894,0 3.62582,-0.48344 v -0.32229 z m 75.98114,18.532 c -3.30353,2.33664 -10.15231,8.21853 -11.1192,0.88631 -0.40287,-3.06181 0.6446,-8.62141 -2.01434,-7.57395 -0.72517,0.40287 -4.27042,2.33665 -4.59272,2.73952 -1.04746,1.93377 -7.89624,12.08608 -8.05739,13.45584 -0.32229,1.36975 1.53091,2.65894 2.4978,1.8532 2.17549,-1.61148 5.07615,-10.79691 9.99116,-14.98675 0.16115,2.65894 -0.16115,6.04304 0.56402,7.49337 3.3841,6.84879 12.16665,0.3223 12.73067,-3.86754 z m 20.54638,0.0806 c -2.41722,2.33664 -18.45143,15.95363 -20.22405,7.97682 -0.56402,-2.41722 0.32229,-4.75386 1.28918,-7.00993 7.25165,2.25607 21.43266,-10.15231 13.29469,-13.21412 -2.09492,-0.88631 -4.59271,0 -6.36534,1.20861 -5.2373,3.3841 -9.10485,8.6214 -10.7969,14.58387 -0.32229,1.12804 -0.40287,2.41722 -0.32229,3.62583 0.0806,4.18984 3.22295,6.44591 7.17107,5.64017 5.15673,-1.12803 14.66445,-7.65452 16.19536,-12.6501 z m -17.72626,-1.36976 c 1.61148,-2.41721 7.65452,-10.31345 11.44149,-7.89624 -0.88631,3.46468 -8.05739,7.7351 -11.44149,7.89624 z m 34.00222,0.72517 c 1.28918,-1.20861 2.09492,-2.25607 2.01435,-4.10927 -0.0806,-3.46468 -3.46468,-3.94812 -6.12362,-3.30353 -5.47903,1.53091 -9.50772,4.59271 -13.13355,8.78256 -1.36975,1.61147 -2.49779,3.3841 -3.14238,5.47902 -0.64459,1.77263 -0.56402,4.59271 1.93378,4.83444 4.59271,0.32229 8.9437,-6.20419 12.3278,-8.62141 -0.56402,2.82008 0.40287,5.64017 3.86755,5.2373 3.22295,-0.40287 10.15231,-5.72075 9.74944,-7.4128 -1.28918,0.56402 -12.24723,9.50772 -11.76379,3.62583 0,-0.16115 0.0806,-0.48345 0.16115,-0.72517 0.56402,-2.25607 2.25607,-4.83443 3.46468,-6.7682 1.12803,0.96688 0.80574,1.93377 0.64459,2.98123 z m -6.36534,-3.54525 c 4.02869,-1.77263 4.83443,-2.01435 1.77263,1.61148 -3.22296,3.62582 -7.33223,8.21853 -11.1192,10.31346 -4.43157,2.33664 -1.45033,-2.09493 -0.16115,-4.0287 2.33664,-3.30353 5.88189,-6.20419 9.50772,-7.89624 z m 27.71743,4.43156 c -1.93377,1.45033 -2.82009,2.65894 -1.77262,-0.40287 1.36975,-4.10927 2.49779,-9.10485 -4.67329,-5.39845 0.40287,-0.80574 0.96689,-1.28918 1.45033,-1.93377 1.20861,-1.93377 -1.36976,-2.25607 -2.65894,-1.28918 -1.12803,1.04746 -2.17549,1.93377 -3.06181,3.14238 -1.5309,1.77262 -9.34657,13.37527 -5.5596,14.90617 1.12804,0.48344 1.93378,-0.24172 2.49779,-1.20861 1.77263,-3.46468 4.27042,-8.86313 7.97682,-11.52207 5.15673,-3.86754 1.77263,2.1755 0.72517,4.83444 -1.20861,2.82008 -1.20861,5.96247 2.01434,4.18984 2.73952,-1.5309 4.43157,-3.94812 6.92936,-5.88189 4.10927,-3.14239 4.59271,-3.22296 4.35099,1.69205 -0.24172,3.46468 1.69205,4.99558 4.02869,4.99558 3.30353,0 10.07174,-3.94812 12.73068,-5.80132 0,-0.80574 -0.0806,-0.96689 -1.28918,-0.3223 -3.46468,1.36976 -13.69757,7.25165 -12.89183,0.40287 0.3223,-2.82008 0.96689,-6.36534 -2.90066,-5.15673 -3.22295,0.88632 -5.47902,2.82009 -7.89624,4.75386 z"
       id="text1"
       transform="scale(0.87409531,1.14404)"
       aria-label="Dream" />
    <path
   style="font-size:52.1763px;font-family:Opencare;-inkscape-font-specification:Opencare;text-align:center;letter-spacing:0px;text-anchor:middle;stroke-width:0;fill:#4c3100;"
       d="m 401.27045,211.70424 c 5.11328,4.06975 17.47906,12.9919 24.36633,9.70479 l -0.0522,-0.20871 c -8.03515,-0.10435 -16.48771,-5.89592 -22.59234,-10.38308 l -0.10435,-0.26088 c 0.52176,-0.0522 1.04352,-0.15653 1.61746,-0.20871 8.03515,-1.25223 25.30551,-7.87862 28.69697,-15.02677 1.25223,-2.55664 0.57394,-4.74804 -1.72182,-6.57421 -6.88727,-5.58287 -20.76617,-4.22628 -28.59261,-1.46094 -0.83482,0.26088 -5.58287,2.13923 -3.60017,3.33928 0.57394,0.36524 1.0957,0.31306 1.56529,0.10435 l -0.78264,-0.78264 c 0.78264,-0.46959 1.77399,-0.887 2.76534,-1.25223 3.44364,-1.25223 7.09598,-1.93052 10.69614,-2.19141 14.50501,-1.0957 27.86215,6.52204 8.71344,16.01813 -5.53068,2.66099 -13.72236,5.9481 -19.77481,7.0438 2.45228,-6.00028 5.32198,-12.57449 7.46121,-18.62694 0.15653,-0.52176 0.57394,-1.66964 -0.20871,-1.93052 -0.88699,-0.26088 -1.30441,1.46093 -1.51311,2.03487 -2.66099,5.84375 -5.11328,11.79185 -7.82645,17.58342 -0.0522,0.10435 -0.10435,0.26088 -0.2087,0.36523 -1.14788,-0.73047 -2.50446,-0.20871 -1.82617,1.14788 0.15653,0.36523 0.62611,0.67829 0.887,0.99135 -1.30441,3.0784 -4.43499,10.64396 -4.43499,13.72237 0,0.2087 0.10435,0.52176 0.10435,0.83482 0.41741,-0.10436 0.57394,-0.36524 0.67829,-0.6783 2.03488,-4.33063 3.70452,-8.86997 5.68722,-13.30495 z m 43.04545,-4.64369 c -1.56529,1.51311 -11.94837,10.3309 -13.09625,5.16545 -0.36523,-1.56529 0.2087,-3.0784 0.83482,-4.53934 4.69587,1.46094 13.8789,-6.57421 8.60909,-8.55691 -1.35658,-0.57394 -2.97405,0 -4.12193,0.78264 -3.39146,2.19141 -5.89592,5.58287 -6.99162,9.44391 -0.20871,0.73047 -0.26088,1.56529 -0.20871,2.34794 0.0522,2.71317 2.08705,4.1741 4.64369,3.65234 3.33929,-0.73047 9.49609,-4.95675 10.48744,-8.19168 z m -11.47879,-0.887 c 1.04353,-1.56529 4.95675,-6.67857 7.40904,-5.11328 -0.57394,2.24358 -5.21763,5.00893 -7.40904,5.11328 z m 22.01843,0.46959 c 0.83482,-0.78265 1.35658,-1.46094 1.30441,-2.66099 -0.0522,-2.24359 -2.24358,-2.55664 -3.9654,-2.13923 -3.54799,0.99135 -6.15681,2.97405 -8.50474,5.68721 -0.887,1.04353 -1.61746,2.19141 -2.03487,3.54799 -0.41742,1.14788 -0.36524,2.97405 1.25223,3.13058 2.97405,0.20871 5.79157,-4.01758 7.98297,-5.58286 -0.36523,1.82617 0.26088,3.65234 2.50446,3.39146 2.08705,-0.26089 6.57422,-3.70452 6.31333,-4.80022 -0.83482,0.36523 -7.93079,6.1568 -7.61773,2.34793 0,-0.10435 0.0522,-0.31306 0.10435,-0.46959 0.36523,-1.46093 1.46093,-3.13058 2.24358,-4.38281 0.73047,0.62612 0.52176,1.25223 0.41741,1.93053 z m -4.12193,-2.29576 c 2.60882,-1.14788 3.13058,-1.30441 1.14788,1.04353 -2.08705,2.34793 -4.74804,5.32198 -7.20033,6.67856 -2.8697,1.51311 -0.93917,-1.35658 -0.10435,-2.60881 1.51311,-2.13923 3.80887,-4.01758 6.1568,-5.11328 z m 19.35741,2.76534 c -0.46959,0.93918 -1.0957,1.72182 -1.56529,2.50447 -3.18275,5.32198 -10.85267,10.85267 -8.86997,1.82617 0.26088,-1.20006 1.61747,-4.95675 1.9827,-5.7394 0,-0.15653 1.87835,-1.40876 2.40011,-1.93052 3.33928,-4.01758 7.35686,-8.34821 9.54826,-13.09625 0.26088,-0.73047 0.83482,-1.774 0.0522,-2.40011 -0.78265,-0.57394 -1.93052,0.10435 -2.50446,0.57394 -0.99135,0.887 -2.13923,1.82617 -2.97405,2.81752 -3.44364,3.65234 -5.7394,7.72209 -7.66992,12.26143 -0.62611,1.35658 -1.66964,4.27846 -2.40011,7.09598 -1.77399,7.09597 1.82617,9.44391 7.0438,4.22628 2.29576,-2.29576 4.33063,-5.32199 5.21763,-7.0438 0.20871,-0.41742 0.46959,-0.93918 -0.26088,-1.09571 z m 1.77399,-16.90512 c -0.62611,2.50446 -7.2525,11.84402 -9.39173,13.56584 2.1914,-5.11328 5.11328,-9.9135 9.39173,-13.56584 z m -1.30436,23.58369 c -0.887,-2.13923 1.72182,-8.40038 2.92187,-10.17438 0.20871,-0.36523 0.52177,-0.67829 0.73047,-1.0957 0.10435,-0.36524 0.0522,-0.78265 -0.15653,-1.04353 -0.67829,-0.62611 -1.40876,0.15653 -1.77399,0.67829 -1.82617,2.50447 -4.90457,9.13086 -3.54799,12.26144 1.9827,4.69586 9.75697,-4.59152 10.74832,-6.31334 0.2087,-0.31306 0.36523,-0.62611 0.2087,-1.04352 -2.29576,2.24358 -8.24385,8.60909 -9.13085,6.73074 z m 4.06975,-13.77454 c 0.73047,-0.78265 1.40876,-1.61747 2.08705,-2.50447 0.73047,-0.83482 0,-1.66964 -0.83482,-1.20005 -1.0957,0.57394 -1.30441,2.50446 -1.25223,3.70452 z m 11.73966,-3.33929 c 3.33928,-3.0784 5.9481,-4.12192 8.1395,-8.45256 0.36524,-0.78264 0.887,-1.93052 0.10435,-2.60881 -0.52176,-0.36524 -0.99135,-0.26088 -1.40876,0 -3.49581,1.9827 -7.40903,7.56556 -9.39173,10.90484 -0.31306,0.52177 -0.67829,0.73047 -1.20005,0.83482 -1.66965,0.31306 -3.91323,0.78265 -5.37416,1.46094 -0.20871,0.0522 -0.46959,0.31306 -0.46959,0.52176 -0.20871,0.93918 2.13923,0.41741 2.55664,0.31306 l 2.86969,-0.52176 c -0.99134,1.93052 -5.0611,12.20925 -4.22628,15.75724 0.26089,1.20006 0.99135,2.50446 2.29576,1.14788 -2.40011,-3.49581 2.40011,-14.66154 4.48716,-17.37471 2.08706,-0.26088 5.00893,-0.88699 7.0438,-0.78264 0.83482,0.0522 1.14788,-0.887 0.36524,-1.25223 -0.887,-0.41741 -4.59152,-0.0522 -5.79157,0.0522 z m 0.52176,-1.77399 c -0.0522,0.0522 1.774,-2.34793 3.65234,-4.64369 2.08705,-2.55664 3.44364,-2.34794 0.99135,0.46958 -1.72182,2.08706 -4.12193,3.60017 -4.64369,4.17411 z m 1.30439,12.1049 c 0.26089,-0.67829 0.57394,-1.35658 0.6783,-1.93052 0.26088,-1.25223 -1.04353,-0.99135 -2.08706,0.2087 -1.3044,1.61747 -3.91322,5.47851 -4.1741,7.20033 -0.31306,2.19141 1.77399,1.82617 3.39146,0.73047 0.46959,-0.41741 1.0957,-0.887 1.66964,-1.30441 1.72182,-1.61746 3.49581,-3.23493 5.26981,-4.80022 -0.26088,1.20006 -0.41741,2.45229 -0.78265,3.65234 -0.15653,0.36524 -0.26088,0.41741 -0.67829,0.62612 -4.80022,2.76534 -11.89619,7.56556 -15.70506,11.73967 -4.74805,5.21763 3.02622,10.69614 9.80914,5.68721 5.63504,-4.01757 6.78292,-11.27008 7.82644,-16.74859 0.15653,-0.57394 0.36524,-0.73047 0.887,-0.99135 1.72182,-0.93917 6.31333,-2.76534 7.51339,-4.01757 -1.0957,-0.31306 -6.41769,2.34793 -7.77427,2.97405 0,-1.82617 0.887,-4.59152 2.08705,-6.20898 0.36524,-0.52177 0.73047,-1.14788 0.15653,-1.51312 -0.62611,-0.31305 -1.14788,0.31306 -1.46094,0.78265 -1.72181,2.29576 -7.35685,6.99162 -9.91349,8.76562 l -0.0522,-0.10436 c 0.67829,-1.82617 1.82617,-3.54798 2.8697,-5.32198 z m 3.54799,5.73939 c -0.88699,5.00893 -3.54799,14.66154 -10.1222,16.27901 -2.92187,0.73047 -7.2525,-1.40876 -5.21763,-4.64369 2.08705,-3.44364 11.47879,-9.86132 15.23548,-11.84402 z"
       id="text1-7"
       transform="scale(0.87409531,1.14404)"
       aria-label="Reality" />
    <path
   style="font-size:44.9707px;font-family:Opencare;-inkscape-font-specification:Opencare;text-align:center;letter-spacing:0px;text-anchor:middle;stroke:#4c3100;stroke-width:0;fill:#4c3100;"
       d="m 273.11234,195.78681 c 0.94439,-3.01303 -1.07929,-2.15859 -2.33847,-0.58462 -1.66392,2.02368 -2.96807,4.18228 -3.86748,6.65567 -0.62959,1.48403 -1.34913,3.73256 -0.76451,5.2166 1.8438,4.94677 8.58941,-4.31719 9.75865,-5.84619 0.17988,-0.22486 0.35976,-0.35977 0.53964,-0.53965 0.0899,0.80947 -0.17988,1.70888 0,2.6083 0.35977,1.34912 1.61895,2.02368 2.87813,1.75386 0.94438,-0.17989 1.70889,-0.62959 2.38345,-1.25918 0.35976,-0.35977 2.78818,-2.65327 2.83315,-2.9231 0.045,-0.0899 0,-0.22485 -0.045,-0.40474 -0.53965,-0.045 -3.46274,3.50772 -5.5314,3.37281 -3.058,0.26982 0.76451,-6.47578 0.94439,-7.60005 0.0899,-0.35977 -0.045,-0.71953 -0.40474,-0.85444 -0.31479,-0.09 -0.62959,-0.045 -0.85444,0.13491 -1.39409,1.25918 -5.03672,6.92549 -7.8249,9.71367 -2.69825,2.69824 -3.41778,1.529 -2.38345,-1.79883 0.85444,-2.87812 2.29351,-5.48642 4.09233,-7.91484 l 0.17989,-0.0899 0.22485,0.35976 z m 15.96464,8.40952 c 0.13491,-0.4497 0.58462,-1.70888 0.94438,-3.01303 0.17989,-0.80948 0.58462,-1.75386 0.58462,-2.42842 0,-0.98936 -0.58462,-1.43906 -1.61894,-1.16924 -0.49468,0.13491 -0.94439,0.44971 -1.48404,0.62959 -0.62959,-0.44971 -0.98935,-0.53965 -1.57397,0 -0.94439,0.7645 -5.93613,7.24028 -3.82251,7.95981 0.44971,0.17989 0.80947,0 1.03433,-0.35976 0.7645,-0.98936 2.2935,-3.91245 3.82251,-5.75625 1.48403,-1.8438 3.23789,-2.65327 1.84379,0.7645 -0.4497,1.0793 -1.03432,2.15859 -1.12426,3.32783 -0.045,1.48404 1.39409,1.8438 2.51836,1.30415 1.07929,-0.58462 5.35151,-3.86748 4.58701,-4.99175 -0.0899,-0.13491 -1.03433,0.98936 -1.30415,1.25918 -1.70889,1.93374 -4.40713,3.28287 -4.40713,2.47339 z m 11.51253,-12.77168 c 2.87812,-2.65327 5.12666,-3.55268 7.01542,-7.28525 0.3148,-0.67456 0.76451,-1.66392 0.0899,-2.24853 -0.44971,-0.3148 -0.85445,-0.22486 -1.21421,0 -3.01304,1.70888 -6.38584,6.52075 -8.09473,9.39887 -0.26982,0.44971 -0.58462,0.62959 -1.03433,0.71953 -1.43906,0.26983 -3.3728,0.67456 -4.63198,1.25918 -0.17988,0.045 -0.40473,0.26983 -0.40473,0.44971 -0.17989,0.80947 1.8438,0.35977 2.20356,0.26982 l 2.47339,-0.4497 c -0.85444,1.66391 -4.36216,10.52314 -3.64263,13.58115 0.22486,1.03432 0.85445,2.15859 1.97871,0.98935 -2.06865,-3.01303 2.06866,-12.63676 3.86748,-14.97524 1.79883,-0.22485 4.31719,-0.7645 6.07105,-0.67456 0.71953,0.045 0.98935,-0.7645 0.31479,-1.0793 -0.7645,-0.35976 -3.95742,-0.045 -4.99174,0.045 z m 0.4497,-1.529 c -0.045,0.045 1.52901,-2.02368 3.14795,-4.00239 1.79883,-2.20357 2.96807,-2.02368 0.85444,0.40473 -1.48403,1.79883 -3.55268,3.10298 -4.00239,3.59766 z m -0.44971,16.27939 c -0.76451,-1.8438 1.48403,-7.24028 2.51836,-8.76928 0.17988,-0.3148 0.4497,-0.58462 0.62958,-0.94439 0.0899,-0.31479 0.045,-0.67456 -0.13491,-0.89941 -0.58462,-0.53965 -1.21421,0.13491 -1.529,0.58462 -1.57398,2.15859 -4.22725,7.86987 -3.05801,10.56811 1.70889,4.04736 8.40952,-3.95742 9.26397,-5.44145 0.17988,-0.26983 0.31479,-0.53965 0.17988,-0.89942 -1.97871,1.93374 -7.10537,7.42017 -7.86987,5.80122 z m 3.50771,-11.87226 c 0.62959,-0.67456 1.21421,-1.39409 1.79883,-2.15859 0.62959,-0.71954 0,-1.43907 -0.71953,-1.03433 -0.94439,0.49468 -1.12427,2.15859 -1.0793,3.19292 z m 13.22137,6.11601 c -0.40473,0.80948 -0.94438,1.48404 -1.34912,2.1586 -2.74321,4.58701 -9.3539,9.3539 -7.64502,1.57397 0.22486,-1.03432 1.39409,-4.27221 1.70889,-4.94677 0,-0.13492 1.61894,-1.21421 2.06865,-1.66392 2.87813,-3.46274 6.34087,-7.19531 8.22964,-11.28765 0.22485,-0.62959 0.71953,-1.529 0.045,-2.06865 -0.67456,-0.49468 -1.66392,0.0899 -2.15859,0.49468 -0.85445,0.7645 -1.8438,1.57397 -2.56333,2.42842 -2.96807,3.14795 -4.94678,6.65566 -6.6107,10.56811 -0.53964,1.16924 -1.43906,3.6876 -2.06865,6.11602 -1.529,6.11601 1.57398,8.13969 6.07105,3.64262 1.97871,-1.97871 3.73256,-4.58701 4.49707,-6.07104 0.17988,-0.35977 0.40473,-0.80947 -0.22486,-0.94439 z m 1.52901,-14.5705 c -0.53965,2.15859 -6.25093,10.20835 -8.09473,11.69238 1.88877,-4.40713 4.40713,-8.54443 8.09473,-11.69238 z m 7.46517,14.5705 c -0.40474,0.80948 -0.94439,1.48404 -1.34912,2.1586 -2.74322,4.58701 -9.35391,9.3539 -7.64502,1.57397 0.22485,-1.03432 1.39409,-4.27221 1.70888,-4.94677 0,-0.13492 1.61895,-1.21421 2.06866,-1.66392 2.87812,-3.46274 6.34086,-7.19531 8.22963,-11.28765 0.22486,-0.62959 0.71954,-1.529 0.045,-2.06865 -0.67456,-0.49468 -1.66391,0.0899 -2.15859,0.49468 -0.85444,0.7645 -1.8438,1.57397 -2.56333,2.42842 -2.96806,3.14795 -4.94678,6.65566 -6.61069,10.56811 -0.53965,1.16924 -1.43906,3.6876 -2.06865,6.11602 -1.52901,6.11601 1.57397,8.13969 6.07104,3.64262 1.97871,-1.97871 3.73257,-4.58701 4.49707,-6.07104 0.17988,-0.35977 0.40474,-0.80947 -0.22485,-0.94439 z m 1.529,-14.5705 c -0.53965,2.15859 -6.25093,10.20835 -8.09472,11.69238 1.88876,-4.40713 4.40712,-8.54443 8.09472,-11.69238 z m 14.88538,20.32675 c -0.7645,-1.8438 1.48403,-7.24028 2.51836,-8.76928 0.17988,-0.3148 0.4497,-0.58462 0.62959,-0.94439 0.0899,-0.31479 0.045,-0.67456 -0.13492,-0.89941 -0.58461,-0.53965 -1.2142,0.13491 -1.529,0.58462 -1.57397,2.15859 -4.22724,7.86987 -3.05801,10.56811 1.70889,4.04736 8.40952,-3.95742 9.26397,-5.44145 0.17988,-0.26983 0.31479,-0.53965 0.17988,-0.89942 -1.97871,1.93374 -7.10537,7.42017 -7.86987,5.80122 z m 3.50771,-11.87226 c 0.62959,-0.67456 1.21421,-1.39409 1.79883,-2.15859 0.62959,-0.71954 0,-1.43907 -0.71953,-1.03433 -0.94439,0.49468 -1.12427,2.15859 -1.0793,3.19292 z m 10.1184,-2.87813 c 2.87812,-2.65327 5.12666,-3.55268 7.01543,-7.28525 0.31479,-0.67456 0.7645,-1.66392 0.0899,-2.24853 -0.44971,-0.3148 -0.85444,-0.22486 -1.21421,0 -3.01304,1.70888 -6.38584,6.52075 -8.09472,9.39887 -0.26983,0.44971 -0.58462,0.62959 -1.03433,0.71953 -1.43906,0.26983 -3.3728,0.67456 -4.63198,1.25918 -0.17989,0.045 -0.40474,0.26983 -0.40474,0.44971 -0.17988,0.80947 1.8438,0.35977 2.20357,0.26982 l 2.47338,-0.4497 c -0.85444,1.66391 -4.36215,10.52314 -3.64262,13.58115 0.22485,1.03432 0.85444,2.15859 1.97871,0.98935 -2.06865,-3.01303 2.06865,-12.63676 3.86748,-14.97524 1.79883,-0.22485 4.31719,-0.7645 6.07104,-0.67456 0.71953,0.045 0.98936,-0.7645 0.3148,-1.0793 -0.7645,-0.35976 -3.95742,-0.045 -4.99175,0.045 z m 0.44971,-1.529 c -0.045,0.045 1.529,-2.02368 3.14795,-4.00239 1.79882,-2.20357 2.96806,-2.02368 0.85444,0.40473 -1.48403,1.79883 -3.55269,3.10298 -4.00239,3.59766 z m 4.63197,4.99175 c 1.30415,-0.7645 3.3728,-3.6876 1.30415,-4.18228 -0.13492,0.045 -0.3148,0.0899 -0.40474,0.22486 -0.0899,0.17988 -0.13491,0.67456 -0.17988,0.85444 -0.26983,1.34912 -0.80948,2.29351 -0.98936,3.19292 z m 8.13972,6.97046 c -0.80947,0.89941 -5.93613,2.24853 -8.22964,5.12666 -0.40474,0.4497 -0.7645,1.03432 -0.98935,1.61894 -0.44971,0.98936 0.0899,1.97871 1.12426,2.29351 2.78819,0.98935 8.54444,-2.06866 10.16338,-4.4521 1.30415,-1.93374 0.58462,-2.29351 0.17988,-4.04737 0.045,-0.045 0.0899,-0.045 0.17989,-0.0899 1.97871,-0.85444 4.31718,-0.98935 6.43081,-1.21421 0.17988,0 0.35976,-0.13491 0.40473,-0.26982 0.13491,-0.49468 -0.58462,-0.67456 -0.94438,-0.67456 -2.56333,0.045 -3.95742,0.62959 -6.47578,1.25918 -0.40474,0.0899 -0.58462,0.0899 -0.94439,-0.0899 -1.70888,-0.85445 -3.55268,-0.98936 -5.53139,-1.03433 V 200.104 c 1.97871,-1.70889 3.91245,-3.14795 6.70063,-3.14795 0.26982,0 0.53965,-0.045 0.62959,-0.35977 0.17988,-0.49467 -0.35977,-0.94438 -0.80947,-0.98935 -0.62959,-0.0899 -1.34912,-0.13491 -1.88877,-0.045 -1.97871,0.31479 -5.71128,2.38345 -6.47578,4.27221 -0.94439,2.51836 4.63198,1.30416 6.47578,2.02369 z m 1.16924,0.85444 c 4.09233,4.63198 -10.52315,9.35391 -9.39888,6.16099 0.3148,-1.03433 1.97871,-2.42842 2.9231,-3.01304 1.93374,-1.43906 4.18227,-2.33848 6.47578,-3.14795 z m 25.8132,-2.38345 c 0.22486,-0.58462 0.49468,-1.16924 0.58462,-1.66391 0.22486,-1.0793 -0.89941,-0.85445 -1.79883,0.17988 -1.12426,1.39409 -3.3728,4.72192 -3.59765,6.20596 -0.26983,1.88877 1.529,1.57397 2.92309,0.62959 0.40474,-0.35977 0.94439,-0.76451 1.43907,-1.12427 1.48403,-1.39409 3.01303,-2.78819 4.54204,-4.13731 -0.22486,1.03433 -0.35977,2.11363 -0.67456,3.14795 -0.13492,0.3148 -0.22486,0.35977 -0.58462,0.53965 -4.13731,2.38345 -10.25332,6.52075 -13.53618,10.11841 -4.09234,4.49707 2.6083,9.21899 8.45449,4.9018 4.85683,-3.46274 5.84619,-9.71367 6.7456,-14.43559 0.13492,-0.49468 0.3148,-0.62959 0.76451,-0.85444 1.48403,-0.80948 5.44145,-2.38345 6.47578,-3.46275 -0.94439,-0.26982 -5.5314,2.02368 -6.70064,2.56333 0,-1.57397 0.7645,-3.95742 1.79883,-5.35151 0.31479,-0.44971 0.62959,-0.98936 0.13491,-1.30415 -0.53965,-0.26982 -0.98935,0.26982 -1.25918,0.67456 -1.48403,1.97871 -6.34087,6.02607 -8.54443,7.55508 l -0.045,-0.0899 c 0.58462,-1.57398 1.57397,-3.05801 2.47339,-4.58702 z m 3.05801,4.94678 c -0.7645,4.31719 -3.05801,12.63677 -8.72431,14.03086 -2.51836,0.62959 -6.25093,-1.21421 -4.49707,-4.00239 1.79882,-2.96807 9.89355,-8.49947 13.13144,-10.20835 z m 14.66041,-2.74321 c 1.48403,-2.33848 3.05801,-5.2166 2.15859,-8.1397 -0.31479,-1.12427 -1.30415,-1.75386 -2.47338,-1.48403 -2.9231,0.7645 -4.94678,3.14795 -5.57637,5.9811 -0.0899,0.49468 -0.22485,0.7645 -0.53965,1.16924 -1.0793,1.25918 -2.06865,3.41777 -1.88877,5.12666 0.17988,1.39409 1.12427,2.11362 2.51836,1.75386 2.06865,-0.62959 4.54204,-3.37281 5.44146,-3.46275 1.43906,-0.17988 5.71127,-1.25918 6.70063,-2.20356 0.26982,-0.26983 -0.045,-0.94439 -0.44971,-0.67456 -1.75385,0.85444 -4.00239,1.529 -5.89116,1.93374 z m -4.72192,-1.79883 c 0.49467,-0.89942 1.25918,-1.57398 0.0899,-2.29351 0.71953,-1.97871 2.06865,-3.55268 4.09233,-4.27221 2.78819,-1.03433 1.39409,4.00239 0.85445,5.12666 -0.40474,0.98935 -1.12427,1.97871 -1.93374,2.74321 -0.22486,0.22485 -0.3148,0.31479 -0.62959,0.31479 -0.98936,-0.13491 -2.02369,-0.71953 -2.47339,-1.61894 z m -0.85445,0.98935 c 0.35977,0.89942 0.98936,1.52901 2.56333,1.57398 -2.33847,2.83315 -4.81186,1.8438 -2.56333,-1.57398 z m 17.13386,-5.93613 c 0.94438,-3.01303 -1.0793,-2.15859 -2.33848,-0.58462 -1.66391,2.02368 -2.96806,4.18228 -3.86748,6.65567 -0.62959,1.48403 -1.34912,3.73256 -0.7645,5.2166 1.8438,4.94677 8.5894,-4.31719 9.75864,-5.84619 0.17989,-0.22486 0.35977,-0.35977 0.53965,-0.53965 0.0899,0.80947 -0.17988,1.70888 0,2.6083 0.35977,1.34912 1.61895,2.02368 2.87813,1.75386 0.94438,-0.17989 1.70888,-0.62959 2.38344,-1.25918 0.35977,-0.35977 2.78819,-2.65327 2.83316,-2.9231 0.045,-0.0899 0,-0.22485 -0.045,-0.40474 -0.53965,-0.045 -3.46275,3.50772 -5.5314,3.37281 -3.05801,0.26982 0.7645,-6.47578 0.94439,-7.60005 0.0899,-0.35977 -0.045,-0.71953 -0.40474,-0.85444 -0.3148,-0.09 -0.62959,-0.045 -0.85444,0.13491 -1.3941,1.25918 -5.03672,6.92549 -7.82491,9.71367 -2.69824,2.69824 -3.41777,1.529 -2.38344,-1.79883 0.85444,-2.87812 2.2935,-5.48642 4.09233,-7.91484 l 0.17988,-0.0899 0.22486,0.35976 z m 22.1706,4.54204 c -1.8438,1.30415 -5.66631,4.58701 -6.20595,0.49468 -0.22486,-1.70889 0.35976,-4.81186 -1.12427,-4.22725 -0.40474,0.22486 -2.38345,1.30415 -2.56333,1.52901 -0.58462,1.0793 -4.40713,6.7456 -4.49707,7.51011 -0.17988,0.7645 0.85444,1.48403 1.39409,1.03432 1.21421,-0.89941 2.83315,-6.02607 5.57637,-8.36455 0.0899,1.48403 -0.0899,3.3728 0.31479,4.18228 1.88877,3.82251 6.79058,0.17988 7.10537,-2.1586 z"
       id="text11"
       aria-label="untill it's your" />
  </g>
</svg>
